<svg width="375" height="68" viewBox="0 0 375 68" fill="none" xmlns="http://www.w3.org/2000/svg">
<g clip-path="url(#clip0_0_8002)">
<path fill-rule="evenodd" clip-rule="evenodd" d="M0 1H375V57H60.0285H50.0169H39.9784H0V1Z" fill="white"/>
<path d="M15 57H40.0315L50.0394 67.1289L59.9865 57H375" stroke="#545458" stroke-opacity="0.65" stroke-width="0.33" stroke-linecap="square"/>
<path d="M22.125 21.9082H20.3672V31.0586C20.3672 34.0664 22.4668 36.2344 25.9629 36.2344C29.459 36.2344 31.5586 34.0664 31.5586 31.0586V21.9082H29.8008V30.9414C29.8008 33.0703 28.4043 34.6133 25.9629 34.6133C23.5215 34.6133 22.125 33.0703 22.125 30.9414V21.9082ZM33.9594 32.2207C34.1254 34.6523 36.1762 36.2344 39.2523 36.2344C42.4066 36.2344 44.4574 34.6035 44.4574 31.9961C44.4574 30.0039 43.2953 28.832 40.3559 28.1875L38.7934 27.8457C36.8695 27.4258 36.1176 26.6641 36.1176 25.5508C36.1176 24.1152 37.475 23.2559 39.2328 23.2559C41.0688 23.2559 42.2895 24.2031 42.4457 25.7461H44.2035C44.1254 23.3535 42.0941 21.6738 39.2816 21.6738C36.3617 21.6738 34.3109 23.3047 34.3109 25.6289C34.3109 27.6309 35.5316 28.9102 38.3539 29.5254L39.9164 29.8672C41.8695 30.2969 42.6508 31.0781 42.6508 32.2598C42.6508 33.6465 41.2641 34.6523 39.35 34.6523C37.3285 34.6523 35.9223 33.7344 35.7172 32.2207H33.9594ZM56.0281 36H57.8738L52.6785 21.9082H50.9402L45.7449 36H47.5906L49.0066 31.9668H54.6121L56.0281 36ZM51.7801 24.0469H51.8387L54.0945 30.4727H49.5242L51.7801 24.0469Z" fill="black"/>
<path d="M15 1H375" stroke="#545458" stroke-opacity="0.65" stroke-width="0.33" stroke-linecap="square"/>
</g>
<defs>
<clipPath id="clip0_0_8002">
<rect width="375" height="68" fill="white"/>
</clipPath>
</defs>
</svg>
