<svg width="29" height="30" viewBox="0 0 29 30" fill="none" xmlns="http://www.w3.org/2000/svg">
<rect y="0.5" width="29" height="29" rx="6" fill="#FD9400"/>
<path fill-rule="evenodd" clip-rule="evenodd" d="M19.957 7.5C21.6138 7.5 22.957 8.84315 22.957 10.5V18.5C22.957 19.0523 22.5092 19.5 21.957 19.5H6.95696C6.40468 19.5 5.95696 19.0523 5.95696 18.5V10.5C5.95696 8.84315 7.30011 7.5 8.95696 7.5H19.957ZM5 20.5561H23.8469C24.3992 20.5561 24.8469 21.0038 24.8469 21.5561C24.8469 22.0689 24.4609 22.4916 23.9635 22.5493L23.8469 22.5561H5C4.44772 22.5561 4 22.1084 4 21.5561C4 21.0432 4.38604 20.6206 4.88338 20.5628L5 20.5561ZM8.95696 9.5H19.957C20.5092 9.5 20.957 9.94772 20.957 10.5V17.5H7.95696V10.5C7.95696 9.94772 8.40468 9.5 8.95696 9.5Z" fill="white"/>
</svg>
