<svg width="29" height="30" viewBox="0 0 29 30" fill="none" xmlns="http://www.w3.org/2000/svg">
<rect y="0.5" width="29" height="29" rx="6" fill="#35AADB"/>
<path fill-rule="evenodd" clip-rule="evenodd" d="M10.3815 16.25C11.9657 16.25 13.25 17.5343 13.25 19.1185C13.25 20.7028 12.4077 22.0384 10.3815 22.6543C9.03069 23.0649 7.48687 22.6188 5.75 21.316C6.86001 21.0567 7.44584 20.3889 7.50751 19.3127L7.51295 19.1185C7.51295 17.5343 8.79723 16.25 10.3815 16.25ZM13.239 13.2463L19.2463 7.23896C19.9306 6.5547 21.071 6.58568 21.7934 7.30815C22.4758 7.99048 22.5413 9.04558 21.97 9.73714L21.8626 9.85525L15.8553 15.8626C15.171 16.5469 14.5 16.9853 13.3081 15.7934C12.1621 14.6474 12.5234 13.983 13.1612 13.3252L19.2463 7.23896L13.239 13.2463Z" fill="white"/>
</svg>
