<svg width="26" height="25" viewBox="0 0 26 25" fill="none" xmlns="http://www.w3.org/2000/svg">
<path fill-rule="evenodd" clip-rule="evenodd" d="M25 7V23C25 24.1046 24.1046 25 23 25H3C1.89543 25 1 24.1046 1 23V7H25ZM17 10H9C8.48716 10 8.06449 10.386 8.00673 10.8834L8 11V12C8 12.5128 8.38604 12.9355 8.88338 12.9933L9 13H17C17.5128 13 17.9355 12.614 17.9933 12.1166L18 12V11C18 10.4872 17.614 10.0645 17.1166 10.0067L17 10ZM24 0C25.1046 0 26 0.89543 26 2V6H0V2C0 0.89543 0.89543 0 2 0H24Z" fill="white"/>
</svg>
