<svg width="29" height="30" viewBox="0 0 29 30" fill="none" xmlns="http://www.w3.org/2000/svg">
<rect y="0.5" width="29" height="29" rx="6" fill="#FF3A2F"/>
<path fill-rule="evenodd" clip-rule="evenodd" d="M14.5 6C19.4706 6 23.5 10.0294 23.5 15C23.5 19.9706 19.4706 24 14.5 24C9.52944 24 5.5 19.9706 5.5 15C5.5 10.0294 9.52944 6 14.5 6ZM19.9413 10.5959L10.0959 20.4413C11.2988 21.416 12.8312 22 14.5 22C18.366 22 21.5 18.866 21.5 15C21.5 13.3312 20.916 11.7988 19.9413 10.5959ZM7.5 15C7.5 11.134 10.634 8 14.5 8C15.9751 8 17.3437 8.45629 18.4722 9.23543L8.73543 18.9722C7.95629 17.8437 7.5 16.4751 7.5 15Z" fill="white"/>
</svg>
