<svg width="22" height="22" viewBox="0 0 22 22" fill="none" xmlns="http://www.w3.org/2000/svg">
<path fill-rule="evenodd" clip-rule="evenodd" d="M17.8032 0.648229C17.7535 0.282154 17.4397 0 17.06 0L16.9582 0.00684662L16.8606 0.0267907C16.5432 0.114107 16.31 0.404822 16.31 0.75V4H13.06L12.9582 4.00685C12.5922 4.05651 12.31 4.3703 12.31 4.75L12.3168 4.85177C12.3665 5.21785 12.6803 5.5 13.06 5.5H16.31V8.75L16.3168 8.85177C16.3665 9.21785 16.6803 9.5 17.06 9.5L17.1618 9.49315C17.5278 9.44349 17.81 9.1297 17.81 8.75V5.5H21.06L21.1618 5.49315C21.5278 5.44349 21.81 5.1297 21.81 4.75L21.8032 4.64823C21.7535 4.28215 21.4397 4 21.06 4H17.81V0.75L17.8032 0.648229ZM6.10749 0.686164L6.22772 0.818698L6.30483 0.924087L6.46359 1.1574L8.26295 3.89406C9.0393 5.28099 9.13643 6.56685 8.32569 7.63104L8.20367 7.78155L6.9666 9.49034C6.90562 9.57436 6.90291 9.6873 6.95978 9.77412C7.48045 10.5692 8.05993 11.3168 8.69849 12.0172L9.08871 12.4317L9.37648 12.7195C10.1943 13.5141 11.08 14.2236 12.0341 14.8484C12.1209 14.9053 12.2338 14.9026 12.3179 14.8416L14.0267 13.6045C15.1191 12.6641 16.4612 12.7319 17.9141 13.5453L20.6508 15.3446L20.9895 15.5805L21.122 15.7007C22.2591 16.7982 21.8988 18.3051 20.6593 19.7454L20.6211 19.7865C17.2466 23.161 12.4558 22.498 6.19451 16.379L5.70328 15.8909L5.42919 15.6137C-0.59264 9.45179 -1.33036 4.71404 1.8641 1.34883L2.02174 1.18706L2.06283 1.14893C3.50308 -0.0905745 5.01005 -0.450893 6.10749 0.686164ZM3.08311 2.24849L2.952 2.38153C0.297155 5.17829 1.19247 9.13229 6.49585 14.5591L6.9719 15.0383L7.24291 15.3062C12.7592 20.6971 16.7449 21.5414 19.5216 18.7662L19.6592 18.6033C20.3949 17.6969 20.4555 17.142 20.1142 16.8117L20.0523 16.7556L19.8267 16.598L17.1372 14.8296C16.2178 14.3248 15.6025 14.2981 15.1036 14.6631L14.9063 14.8196L13.199 16.0555C12.6109 16.4824 11.8201 16.5014 11.2123 16.1033C10.1782 15.4261 9.21765 14.6566 8.31582 13.7802L7.99646 13.4598L7.59003 13.0278C6.89769 12.2684 6.26926 11.4577 5.70498 10.596C5.3068 9.98807 5.32581 9.19735 5.75158 8.61073L7.03849 6.83691L7.1325 6.72203C7.5066 6.23098 7.49277 5.60773 6.97857 4.67094L5.22344 2.00123L5.06374 1.7681L5.01583 1.71529L4.95013 1.65631C4.56617 1.34757 3.98202 1.47616 3.08311 2.24849Z" fill="#037EE5"/>
</svg>
