<svg width="22" height="22" viewBox="0 0 22 22" fill="none" xmlns="http://www.w3.org/2000/svg">
<path fill-rule="evenodd" clip-rule="evenodd" d="M6.22772 0.818698L6.10749 0.686164C5.01005 -0.450893 3.50308 -0.0905745 2.06283 1.14893L2.02174 1.18706L1.8641 1.34883C-1.33036 4.71404 -0.59264 9.45179 5.42919 15.6137L5.70328 15.8909L5.8109 15.9962L5.91729 16.1049L6.19451 16.379C12.4558 22.498 17.2466 23.161 20.6211 19.7865L20.6593 19.7454C21.8988 18.3051 22.2591 16.7982 21.122 15.7007L20.9895 15.5805L20.6508 15.3446L17.9141 13.5453C16.4612 12.7319 15.1191 12.6641 14.0267 13.6045L12.3179 14.8416C12.2338 14.9026 12.1209 14.9053 12.0341 14.8484C11.08 14.2236 10.1943 13.5141 9.37648 12.7195L9.08871 12.4317L8.69849 12.0172C8.05993 11.3168 7.48045 10.5692 6.95978 9.77412C6.90291 9.6873 6.90562 9.57436 6.9666 9.49034L8.20367 7.78155L8.32569 7.63104C9.13643 6.56685 9.0393 5.28099 8.26295 3.89406L6.46359 1.1574L6.30483 0.924087L6.22772 0.818698ZM3.08311 2.24849C3.98202 1.47616 4.56617 1.34757 4.95013 1.65631L5.01583 1.71529L5.06374 1.7681L5.22344 2.00123L6.97857 4.67094C7.49277 5.60773 7.5066 6.23098 7.1325 6.72203L7.03849 6.83691L5.75158 8.61073C5.32581 9.19735 5.3068 9.98807 5.70498 10.596C6.26926 11.4577 6.89769 12.2684 7.59003 13.0278L7.99646 13.4598L8.31582 13.7802C9.21765 14.6566 10.1782 15.4261 11.2123 16.1033C11.8201 16.5014 12.6109 16.4824 13.199 16.0555L14.9063 14.8196L15.1036 14.6631C15.6025 14.2981 16.2178 14.3248 17.1372 14.8296L19.8267 16.598L20.0523 16.7556L20.1142 16.8117C20.4555 17.142 20.3949 17.6969 19.6592 18.6033L19.5216 18.7662C16.7449 21.5414 12.7592 20.6971 7.24291 15.3062L6.9719 15.0383L6.88297 14.9471L6.75229 14.8187L6.49585 14.5591C1.19247 9.13229 0.297155 5.17829 2.952 2.38153L3.08311 2.24849Z" fill="#037EE5"/>
</svg>
