<svg width="29" height="26" viewBox="0 0 29 26" fill="none" xmlns="http://www.w3.org/2000/svg">
<path fill-rule="evenodd" clip-rule="evenodd" d="M12.1222 21.4542C18.4753 20.9334 23.5 16.0336 23.5 10C23.5 7.53107 22.6587 5.25199 21.2292 3.38511C25.7286 4.502 29 7.98488 29 13C29 15.6775 27.9885 17.9136 25.9656 19.7085C25.7456 19.9037 25.5524 20.1272 25.3911 20.3732C24.4179 21.8567 24.7821 23.8302 26.1888 24.8742L26.3494 24.9863L26.0893 25.0334C24.0169 25.3648 22.1433 24.6026 20.4689 22.7471C19.6753 22.9126 18.8489 23 18 23C15.8385 23 13.8225 22.4332 12.1222 21.4542Z" fill="#545458" fill-opacity="0.65"/>
<path fill-rule="evenodd" clip-rule="evenodd" d="M11 0C17.0751 0 22 4.47715 22 10C22 15.5228 17.0751 20 11 20C10.1511 20 9.32475 19.9126 8.5311 19.7471C6.7869 21.6799 4.82667 22.4264 2.6506 21.9863C4.49443 20.7768 4.3712 17.7738 2.813 16.2135C1.31385 14.7122 0 12.6427 0 10C0 3.84667 4.92487 0 11 0Z" fill="#545458" fill-opacity="0.65"/>
</svg>
