<svg width="25" height="25" viewBox="0 0 25 25" fill="none" xmlns="http://www.w3.org/2000/svg">
<path fill-rule="evenodd" clip-rule="evenodd" d="M12.5 0C19.4036 0 25 5.59644 25 12.5C25 19.4036 19.4036 25 12.5 25C5.59644 25 0 19.4036 0 12.5C0 5.59644 5.59644 0 12.5 0ZM12.5 15.9999C9.71031 15.9999 7.14295 16.5 5.10508 18.5507C4.76253 18.8954 4.64484 19.4877 5.01712 19.8659C6.92167 21.8005 9.57076 23 12.5 23C15.4297 23 18.0791 21.8002 19.9839 19.8644C20.3562 19.486 20.2382 18.8938 19.8953 18.549C17.8574 16.5 15.2899 15.9999 12.5 15.9999ZM8.5 9C8.5 6.79086 10.2909 5 12.5 5C14.7091 5 16.5 6.79086 16.5 9C16.5 11.2091 14.7091 13 12.5 13C10.2909 13 8.5 11.2091 8.5 9Z" fill="#545458" fill-opacity="0.65"/>
</svg>
