<svg width="29" height="30" viewBox="0 0 29 30" fill="none" xmlns="http://www.w3.org/2000/svg">
<rect y="0.5" width="29" height="29" rx="6" fill="#34C759"/>
<path fill-rule="evenodd" clip-rule="evenodd" d="M22 18.1264L21.9983 20.4122C20.5678 21.3571 17.7467 22 14.5002 22C11.3837 22 8.65902 21.4075 7.18048 20.5241L7.00221 20.4122L7 18.1262C8.82252 19.0008 11.5491 19.5 14.5002 19.5C17.4511 19.5 20.1775 19.0009 22 18.1264ZM7.00104 13.639C8.6244 14.8445 11.4021 15.5 14.5015 15.5C17.6003 15.5 20.3775 14.8448 22.001 13.6397L22.0008 16.4122C20.5702 17.3571 17.7485 18 14.5015 18C11.3844 18 8.65931 17.4075 7.18051 16.5241L7.00221 16.4122L7.00104 13.639ZM14.5034 8C18.6456 8 22.0034 9.34315 22.0034 11C22.0034 12.6569 18.6456 14 14.5034 14C10.3613 14 7.00343 12.6569 7.00343 11C7.00343 9.34315 10.3613 8 14.5034 8Z" fill="white"/>
</svg>
