<svg width="16" height="19" viewBox="0 0 16 19" fill="none" xmlns="http://www.w3.org/2000/svg">
<path fill-rule="evenodd" clip-rule="evenodd" d="M11.5462 1.6C11.5462 0.716344 10.8298 0 9.94619 0H5.94619C5.06253 0 4.34619 0.716344 4.34619 1.6L4.346 3H0.6L0.502677 3.00785C0.21759 3.05435 0 3.30177 0 3.6L0.00785299 3.69732C0.0543532 3.98241 0.301766 4.2 0.6 4.2H1.519L2.25949 15.2996C2.36455 16.8755 3.67346 18.1 5.25285 18.1H10.6395C12.2189 18.1 13.5278 16.8755 13.6329 15.2996L14.373 4.2H15.3672L15.4645 4.19215C15.7496 4.14565 15.9672 3.89823 15.9672 3.6L15.9593 3.50268C15.9128 3.21759 15.6654 3 15.3672 3H11.546L11.5462 1.6ZM2.72885 4.3H13.1635L12.4355 15.2197C12.3725 16.1653 11.5872 16.9 10.6395 16.9H5.25285C4.30521 16.9 3.51987 16.1653 3.45684 15.2197L2.72885 4.3ZM7.94619 6.02041C8.24442 6.02041 8.49184 6.238 8.53834 6.52309L8.54619 6.62041V14.507C8.54619 14.8384 8.27756 15.107 7.94619 15.107C7.64796 15.107 7.40054 14.8894 7.35404 14.6043L7.34619 14.507V6.62041C7.34619 6.28904 7.61482 6.02041 7.94619 6.02041ZM5.56301 6.49764C5.50165 6.21537 5.24319 6.01103 4.94537 6.02664C4.61445 6.04398 4.36025 6.3263 4.37759 6.65722L4.79034 14.533L4.80328 14.6298C4.86464 14.9121 5.1231 15.1164 5.42092 15.1008C5.75184 15.0835 6.00604 14.8011 5.9887 14.4702L5.57595 6.59442L5.56301 6.49764ZM11.0209 6.02664C11.3187 6.04225 11.5544 6.27249 11.586 6.55962L11.5887 6.65722L11.1759 14.533C11.1586 14.8639 10.8763 15.1181 10.5454 15.1008C10.2475 15.0852 10.0119 14.8549 9.98034 14.5678L9.97759 14.4702L10.3903 6.59442C10.4077 6.2635 10.69 6.0093 11.0209 6.02664ZM5.94619 1.2H9.94619C10.1671 1.2 10.3462 1.37909 10.3462 1.6V3H5.54619V1.6C5.54619 1.37909 5.72528 1.2 5.94619 1.2Z" fill="#FE3B30"/>
</svg>
