<svg width="20" height="30" viewBox="0 0 20 30" fill="none" xmlns="http://www.w3.org/2000/svg">
<path fill-rule="evenodd" clip-rule="evenodd" d="M19 6L17.1588 27.1733C17.069 28.2068 16.2038 29 15.1664 29H4.83363C3.79622 29 2.93102 28.2068 2.84115 27.1733L1 6H19ZM10 8.5C9.58579 8.5 9.25 8.83579 9.25 9.25V24.9779C9.25 25.3921 9.58579 25.7279 10 25.7279C10.4142 25.7279 10.75 25.3921 10.75 24.9779V9.25C10.75 8.83579 10.4142 8.5 10 8.5ZM5.54918 8.51181C5.13554 8.53348 4.81778 8.88638 4.83946 9.30003L5.66259 25.0064C5.68427 25.42 6.03717 25.7377 6.45082 25.7161C6.86446 25.6944 7.18222 25.3415 7.16054 24.9278L6.33741 9.22153C6.31573 8.80788 5.96283 8.49013 5.54918 8.51181ZM14.4508 8.51181C14.0372 8.49013 13.6843 8.80788 13.6626 9.22153L12.8395 24.9278C12.8178 25.3415 13.1355 25.6944 13.5492 25.7161C13.9628 25.7377 14.3157 25.42 14.3374 25.0064L15.1605 9.30003C15.1822 8.88638 14.8645 8.53348 14.4508 8.51181ZM12.1972 0.75C12.6988 0.75 13.1671 1.00065 13.4453 1.41795L14.333 2.75H18C19.0544 2.75 19.9182 3.56588 19.9945 4.60074L20 4.75H0C0 3.64543 0.89543 2.75 2 2.75H5.666L6.5547 1.41795C6.8329 1.00065 7.30125 0.75 7.80278 0.75H12.1972Z" fill="#FEFFFE"/>
</svg>
