<svg width="20" height="21" viewBox="0 0 20 21" fill="none" xmlns="http://www.w3.org/2000/svg">
<path fill-rule="evenodd" clip-rule="evenodd" d="M19.0142 1.5385C19.2321 1.24489 19.2079 0.828222 18.9416 0.561955C18.6487 0.269062 18.1739 0.269062 17.881 0.561955L17.4672 0.975745L18.5278 2.03641L18.9416 1.62262L19.0142 1.5385ZM16.9368 1.50608L17.9975 2.56674L8.25443 12.3098C7.4618 13.1024 6.44526 13.4386 6.21181 13.3431L6.18033 13.3232C6.03745 13.1804 6.32213 12.2036 7.05903 11.3907L7.19377 11.2491L16.9368 1.50608ZM2.75 2.00002H12.25C12.6642 2.00002 13 2.33581 13 2.75002C13 3.12972 12.7178 3.44351 12.3518 3.49317L12.25 3.50002H2.75C2.10279 3.50002 1.57047 3.9919 1.50645 4.62222L1.5 4.75002V16.75C1.5 17.3972 1.99187 17.9296 2.62219 17.9936L2.75 18H14.75C15.3972 18 15.9295 17.5081 15.9935 16.8778L16 16.75V7.10555C16 6.69134 16.3358 6.35555 16.75 6.35555C17.1297 6.35555 17.4435 6.63771 17.4932 7.00378L17.5 7.10555V16.75C17.5 18.2126 16.3583 19.4084 14.9175 19.495L14.75 19.5H2.75C1.28747 19.5 0.0915957 18.3583 0.00501879 16.9175L0 16.75V4.75002C0 3.28749 1.1417 2.09162 2.58248 2.00504L2.75 2.00002Z" fill="#037EE5"/>
</svg>
