<svg width="29" height="30" viewBox="0 0 29 30" fill="none" xmlns="http://www.w3.org/2000/svg">
<rect y="0.5" width="29" height="29" rx="6" fill="#4CD964"/>
<path d="M17.4781 19.0435C17.9784 18.8097 18.5736 19.0258 18.8074 19.5261C19.0412 20.0265 18.8251 20.6216 18.3248 20.8554C17.083 21.4357 15.7805 21.7273 14.427 21.7273C13.067 21.7273 11.7913 21.4327 10.6121 20.8442C10.118 20.5976 9.91731 19.9971 10.1639 19.5029C10.4106 19.0087 11.0111 18.8081 11.5052 19.0547C12.4042 19.5033 13.374 19.7273 14.427 19.7273C15.4867 19.7273 16.5004 19.5003 17.4781 19.0435Z" fill="white"/>
<path d="M14.4271 9.5C14.9399 9.5 15.3626 9.88604 15.4204 10.3834L15.4271 10.5V15C15.4271 16.3255 14.3955 17.41 13.0915 17.4947L12.9271 17.5H12.5713C12.019 17.5 11.5713 17.0523 11.5713 16.5C11.5713 15.9872 11.9573 15.5645 12.4547 15.5067L12.5713 15.5H12.9271C13.1725 15.5 13.3767 15.3231 13.419 15.0899L13.4271 15V10.5C13.4271 9.94772 13.8748 9.5 14.4271 9.5Z" fill="white"/>
<path d="M20 9.5C20.5128 9.5 20.9355 9.88604 20.9933 10.3834L21 10.5V12.5C21 13.0523 20.5523 13.5 20 13.5C19.4872 13.5 19.0645 13.114 19.0067 12.6166L19 12.5V10.5C19 9.94772 19.4477 9.5 20 9.5Z" fill="white"/>
<path d="M9 9.5C9.51284 9.5 9.93551 9.88604 9.99327 10.3834L10 10.5V12.5C10 13.0523 9.55228 13.5 9 13.5C8.48716 13.5 8.06449 13.114 8.00673 12.6166L8 12.5V10.5C8 9.94772 8.44772 9.5 9 9.5Z" fill="white"/>
<path opacity="0.5" d="M25 19.7273C25.5129 19.7273 25.9355 20.1133 25.9933 20.6107L26 20.7273V23.5909C26 25.1406 24.7893 26.4066 23.2619 26.4951L23.0909 26.5H20.2273C19.675 26.5 19.2273 26.0523 19.2273 25.5C19.2273 24.9872 19.6133 24.5645 20.1107 24.5068L20.2273 24.5H23.0909C23.5575 24.5 23.9414 24.1494 23.9939 23.697L24 23.5909V20.7273C24 20.175 24.4477 19.7273 25 19.7273Z" fill="white"/>
<path opacity="0.5" d="M4 19.7273C4.51284 19.7273 4.93551 20.1133 4.99327 20.6107L5 20.7273V23.5909C5 24.0575 5.35059 24.4414 5.803 24.4939L5.90909 24.5H8.77273C9.32501 24.5 9.77273 24.9477 9.77273 25.5C9.77273 26.0129 9.38669 26.4355 8.88935 26.4933L8.77273 26.5H5.90909C4.35943 26.5 3.09339 25.2893 3.00494 23.7619L3 23.5909V20.7273C3 20.175 3.44772 19.7273 4 19.7273Z" fill="white"/>
<path opacity="0.5" d="M20.2273 3.5H23.0909C24.6406 3.5 25.9066 4.71069 25.9951 6.23812L26 6.40909V9.27273C26 9.82501 25.5523 10.2727 25 10.2727C24.4872 10.2727 24.0645 9.88669 24.0068 9.38935L24 9.27273V6.40909C24 5.9425 23.6494 5.55858 23.197 5.50611L23.0909 5.5H20.2273C19.675 5.5 19.2273 5.05228 19.2273 4.5C19.2273 3.98716 19.6133 3.56449 20.1107 3.50673L20.2273 3.5H23.0909H20.2273Z" fill="white"/>
<path opacity="0.5" d="M5.90909 3.5H8.77273C9.32501 3.5 9.77273 3.94772 9.77273 4.5C9.77273 5.01284 9.38669 5.43551 8.88935 5.49327L8.77273 5.5H5.90909C5.4425 5.5 5.05858 5.85059 5.00611 6.303L5 6.40909V9.27273C5 9.82501 4.55228 10.2727 4 10.2727C3.48716 10.2727 3.06449 9.88669 3.00673 9.38935L3 9.27273V6.40909C3 4.85943 4.21069 3.59339 5.73812 3.50494L5.90909 3.5H8.77273H5.90909Z" fill="white"/>
</svg>
