<svg width="22" height="22" viewBox="0 0 22 22" fill="none" xmlns="http://www.w3.org/2000/svg">
<path fill-rule="evenodd" clip-rule="evenodd" d="M21.5 10.75C21.5 4.81294 16.6871 0 10.75 0C4.81294 0 0 4.81294 0 10.75C0 16.6871 4.81294 21.5 10.75 21.5C16.6871 21.5 21.5 16.6871 21.5 10.75ZM1.5 10.75C1.5 5.64137 5.64137 1.5 10.75 1.5C15.8586 1.5 20 5.64137 20 10.75C20 15.8586 15.8586 20 10.75 20C5.64137 20 1.5 15.8586 1.5 10.75ZM11.5 8.47061L11.4998 15.4996L12.75 15.5C13.1297 15.5 13.4435 15.7822 13.4932 16.1482L13.5 16.25C13.5 16.6297 13.2178 16.9435 12.8518 16.9932L12.75 17H8.75C8.33579 17 8 16.6642 8 16.25C8 15.8703 8.28215 15.5565 8.64823 15.5068L8.75 15.5L9.9998 15.4996L10 9.97061H8.7098C8.29559 9.97061 7.9598 9.63482 7.9598 9.22061C7.9598 8.84091 8.24196 8.52712 8.60803 8.47746L8.7098 8.47061H11.5ZM12 5.75C12 5.05964 11.4404 4.5 10.75 4.5C10.0596 4.5 9.5 5.05964 9.5 5.75C9.5 6.44036 10.0596 7 10.75 7C11.4404 7 12 6.44036 12 5.75Z" fill="#037EE5"/>
</svg>
