<svg width="22" height="26" viewBox="0 0 22 26" fill="none" xmlns="http://www.w3.org/2000/svg">
<path fill-rule="evenodd" clip-rule="evenodd" d="M13 0.5C15.4853 0.5 17.5 2.51472 17.5 5C17.5 7.48528 15.4853 9.5 13 9.5C10.5147 9.5 8.5 7.48528 8.5 5C8.5 2.51472 10.5147 0.5 13 0.5ZM21.5649 16.8185C19.9029 12.9395 16.9628 11 12.7446 11C10.4529 11 8.40291 11.7014 6.59462 13.1043C6.57187 13.122 6.55024 13.1411 6.52989 13.1615C6.26306 13.4287 6.2634 13.8616 6.53064 14.1285C6.82013 14.4175 7.28031 14.4436 7.60066 14.1892C9.01874 13.0631 10.7334 12.5 12.7446 12.5C16.3626 12.5 18.7605 14.0818 20.1861 17.4093C20.2661 17.5959 20.3073 17.7969 20.3073 18C20.3073 18.8284 19.6358 19.5 18.8073 19.5H11.994C11.5798 19.5 11.244 19.8358 11.244 20.25C11.244 20.6642 11.5798 21 11.994 21H18.8073L18.9836 20.9949C20.5584 20.9037 21.8073 19.5977 21.8073 18C21.8073 17.5938 21.7249 17.1919 21.5649 16.8185ZM5.49315 16.1482C5.44349 15.7822 5.1297 15.5 4.75 15.5L4.64823 15.5068L4.55062 15.5268C4.23318 15.6141 4 15.9048 4 16.25V19.5H0.75L0.648229 19.5068C0.282154 19.5565 0 19.8703 0 20.25L0.00684662 20.3518C0.056509 20.7178 0.370304 21 0.75 21H4V24.25L4.00685 24.3518C4.05651 24.7178 4.3703 25 4.75 25L4.85177 24.9932C5.21785 24.9435 5.5 24.6297 5.5 24.25V21H8.75L8.85177 20.9932C9.21785 20.9435 9.5 20.6297 9.5 20.25L9.49315 20.1482C9.44349 19.7822 9.1297 19.5 8.75 19.5H5.5V16.25L5.49315 16.1482ZM10 5C10 3.34315 11.3431 2 13 2C14.6569 2 16 3.34315 16 5C16 6.65685 14.6569 8 13 8C11.3431 8 10 6.65685 10 5Z" fill="#007AFF"/>
</svg>
