<svg width="29" height="30" viewBox="0 0 29 30" fill="none" xmlns="http://www.w3.org/2000/svg">
<rect y="0.5" width="29" height="29" rx="6" fill="#1E94F8"/>
<path fill-rule="evenodd" clip-rule="evenodd" d="M16.8622 6.5C20.1759 6.5 22.8622 9.18629 22.8622 12.5C22.8622 15.8137 20.1759 18.5 16.8622 18.5C16.0607 18.5 15.296 18.3429 14.5971 18.0577L13.5438 19.111H11.6557V20.7714H9.95438V22.3912L9.26661 23.079H6V19.9912L11.2819 14.7092C11.011 14.0255 10.8622 13.2801 10.8622 12.5C10.8622 9.18629 13.5484 6.5 16.8622 6.5ZM18.3122 8.8C17.0695 8.8 16.0622 9.80736 16.0622 11.05C16.0622 12.2926 17.0695 13.3 18.3122 13.3C19.5548 13.3 20.5622 12.2926 20.5622 11.05C20.5622 9.80736 19.5548 8.8 18.3122 8.8Z" fill="white"/>
</svg>
