<svg width="18" height="24" viewBox="0 0 18 24" fill="none" xmlns="http://www.w3.org/2000/svg">
<path fill-rule="evenodd" clip-rule="evenodd" d="M17.5 8.5C17.5 3.80558 13.6944 0 9 0C4.30558 0 0.5 3.80558 0.5 8.5C0.5 12.3311 2.71466 16.8136 7.14399 21.9475L7.49828 22.3542L7.61776 22.4789C8.35962 23.1898 9.53518 23.2261 10.3209 22.535C10.385 22.4786 10.4454 22.4182 10.5017 22.3542C15.1672 17.05 17.5 12.432 17.5 8.5ZM2 8.5C2 4.63401 5.13401 1.5 9 1.5C12.866 1.5 16 4.63401 16 8.5C16 11.9973 13.8229 16.3072 9.37543 21.3635L9.33023 21.4087L9.25742 21.462C9.05433 21.5843 8.78669 21.5478 8.62457 21.3635L8.27497 20.9622C4.06326 16.0805 2 11.9044 2 8.5ZM9 5C10.933 5 12.5 6.567 12.5 8.5C12.5 10.433 10.933 12 9 12C7.067 12 5.5 10.433 5.5 8.5C5.5 6.567 7.067 5 9 5ZM7 8.5C7 7.39543 7.89543 6.5 9 6.5C10.1046 6.5 11 7.39543 11 8.5C11 9.60457 10.1046 10.5 9 10.5C7.89543 10.5 7 9.60457 7 8.5Z" fill="#007AFF"/>
</svg>
