<svg width="20" height="20" viewBox="0 0 20 20" fill="none" xmlns="http://www.w3.org/2000/svg">
<path fill-rule="evenodd" clip-rule="evenodd" d="M9.35854 0C11.5227 0 19.8957 8.39007 19.9772 10.3906C19.7123 15.6758 15.3518 19.9823 10 19.9823C4.47715 19.9823 0 15.5052 0 9.98232C0 4.74029 4.22587 0.423732 9.35854 0ZM8.57307 1.60187C4.55807 2.28019 1.5 5.77413 1.5 9.98232C1.5 14.6767 5.30558 18.4823 10 18.4823C14.2081 18.4823 17.7019 15.4244 18.3807 11.4095L18.4422 11.3832C17.5388 11.7689 16.5443 11.9823 15.5 11.9823C11.3579 11.9823 8 8.62445 8 4.48232C8 3.56011 8.16645 2.67677 8.47093 1.86072L8.57307 1.60187ZM10.0119 2.0525L10.1448 1.7726L10.274 1.83794C10.453 1.93193 10.6591 2.0533 10.8858 2.20066C11.8218 2.80933 12.8949 3.8935 14.0378 5.04814C14.1889 5.20082 14.3413 5.35473 14.4947 5.50893C14.6477 5.66277 14.8001 5.8152 14.951 5.96613C16.0961 7.1114 17.1551 8.17063 17.7575 9.10927C17.94 9.3936 18.0819 9.64556 18.1805 9.85219C17.3583 10.2637 16.4466 10.4823 15.5 10.4823C12.1863 10.4823 9.5 7.79602 9.5 4.48232C9.5 3.63084 9.67691 2.80761 10.0119 2.0525Z" fill="#858E99"/>
</svg>
