<svg width="26" height="27" viewBox="0 0 26 27" fill="none" xmlns="http://www.w3.org/2000/svg">
<path fill-rule="evenodd" clip-rule="evenodd" d="M4.191 7.99994L19 22.8099V23.289C19 23.8073 18.7988 24.3053 18.4388 24.6782C17.712 25.431 16.5374 25.4906 15.7401 24.8425L15.6108 24.7279L8.384 17.7499L3.75 17.75C2.36929 17.75 1.25 16.6307 1.25 15.25V10.5C1.25 9.11927 2.36929 7.99994 3.75 7.99994H4.191ZM0.542893 0.817088C0.903377 0.456605 1.47061 0.428875 1.8629 0.7339L1.95711 0.817088L24.1823 23.0423C24.5728 23.4328 24.5728 24.066 24.1823 24.4565C23.8218 24.817 23.2546 24.8447 22.8623 24.5397L22.7681 24.4565L0.542893 2.2313C0.152369 1.84078 0.152369 1.20761 0.542893 0.817088ZM17 0.210938C18.0544 0.210938 18.9182 1.02682 18.9945 2.06168L19 2.21094V15.7389L9.719 6.45894L15.6108 0.772098C15.9008 0.492117 16.2666 0.308194 16.6586 0.240277L16.8281 0.218331L17 0.210938Z" fill="white"/>
</svg>
