<svg width="17" height="17" viewBox="0 0 17 17" fill="none" xmlns="http://www.w3.org/2000/svg">
<path fill-rule="evenodd" clip-rule="evenodd" d="M10.2962 1.91037C10.1058 0.809596 9.16384 0 8.04296 0H7.8986L7.71765 0.0075414C6.70922 0.0982607 5.9036 0.809636 5.67651 1.74653L5.64251 1.91413L5.42481 2.04717C5.05684 2.2818 4.71526 2.55023 4.40667 2.84544L5.25513 3.69319C5.56701 3.39746 5.92127 3.134 6.30747 2.91565L6.7972 2.65389L6.81794 2.16631C6.86093 1.66967 7.27692 1.25172 7.79873 1.20449L7.9256 1.19939L8.04296 1.2C8.60791 1.2 9.07753 1.63333 9.12526 2.1919L9.14477 2.66325L9.45874 2.82186C10.9993 3.60007 12.0808 5.11159 12.0808 6.59677V7.75748C12.0808 9.40976 12.3707 10.5617 13.219 11.5041L14.59 13.027L15.561 13.998L15.5839 13.9818C16.0354 13.5753 16.072 12.8798 15.6655 12.4283L14.1109 10.7012C13.5036 10.0266 13.2808 9.14127 13.2808 7.75748V6.59677C13.2808 4.72635 12.058 2.91958 10.2962 1.91037ZM1.4956 1.09969C1.26176 0.937691 0.938451 0.960834 0.730172 1.16911C0.495857 1.40343 0.495857 1.78333 0.730172 2.01764L15.5338 16.8212L15.6169 16.8907C15.8507 17.0527 16.174 17.0295 16.3823 16.8212C16.6166 16.5869 16.6166 16.207 16.3823 15.9727L1.5787 1.16911L1.4956 1.09969ZM3.86099 6.54264L2.80459 5.48528C2.71038 5.84974 2.6605 6.22222 2.6605 6.59677V7.75748L2.65374 8.00561C2.58315 9.33773 2.37958 10.0915 1.8307 10.7012L0.276065 12.4283L0.187866 12.5419C-0.120453 13.0363 -0.0391816 13.6245 0.357672 13.9818C0.559669 14.1636 0.82183 14.2642 1.09361 14.2642L4.53677 14.2647C4.84519 15.7963 6.19829 16.9498 7.82078 16.9498C9.44363 16.9498 10.797 15.7958 11.105 14.2637L11.583 14.264L10.385 13.065L1.31516 13.0643L2.72258 11.5041C3.50185 10.6384 3.76821 9.65212 3.8527 8.05311L3.86029 7.77331L3.86099 6.54264ZM9.86626 14.2639L5.77564 14.2649C6.05574 15.1268 6.86551 15.7498 7.82078 15.7498C8.77643 15.7498 9.58646 15.1263 9.86626 14.2639Z" fill="black"/>
</svg>
