<svg width="29" height="30" viewBox="0 0 29 30" fill="none" xmlns="http://www.w3.org/2000/svg">
<rect y="0.5" width="29" height="29" rx="6" fill="#FF3B30"/>
<path fill-rule="evenodd" clip-rule="evenodd" d="M16 7.5V9H10C8.61929 9 7.5 10.1193 7.5 11.5V19.5C7.5 20.8807 8.61929 22 10 22H18C19.3807 22 20.5 20.8807 20.5 19.5V13.5H22V19.5C22 21.7091 20.2091 23.5 18 23.5H10C7.79086 23.5 6 21.7091 6 19.5V11.5C6 9.29086 7.79086 7.5 10 7.5H16ZM21 4.5C23.2091 4.5 25 6.29086 25 8.5C25 10.7091 23.2091 12.5 21 12.5C18.7909 12.5 17 10.7091 17 8.5C17 6.29086 18.7909 4.5 21 4.5Z" fill="white"/>
</svg>
