<svg width="13" height="14" viewBox="0 0 13 14" fill="none" xmlns="http://www.w3.org/2000/svg">
<path fill-rule="evenodd" clip-rule="evenodd" d="M12.6963 1C12.6963 0.723858 12.4724 0.5 12.1963 0.5L7.93 0.5L7.82215 0.509667C7.54225 0.56047 7.33 0.805448 7.33 1.1L7.33967 1.20785C7.39047 1.48775 7.63545 1.7 7.93 1.7L10.6478 1.69995L7.62713 4.72063L7.56387 4.795C7.39516 5.02947 7.41625 5.35828 7.62713 5.56916L7.7015 5.63242C7.93597 5.80113 8.26478 5.78004 8.47566 5.56916L11.4963 2.54848L11.4963 5.00639L11.506 5.11424C11.5568 5.39414 11.8017 5.60639 12.0963 5.60639C12.4277 5.60639 12.6963 5.33776 12.6963 5.00639L12.6963 1ZM3.76096 2.13132C3.58506 1.82461 3.3817 1.53448 3.15338 1.26452C2.52702 0.616619 1.83113 0.935785 1.04555 1.6069L1.02317 1.62759L0.937536 1.71557C-0.796678 3.54716 -0.181217 6.05417 3.25469 9.56623L3.53308 9.84632L3.92752 10.2311C7.37217 13.5183 9.83617 14.0278 11.6298 12.2342L11.7577 12.0805C12.3391 11.3341 12.6041 10.6949 11.9922 10.1034C11.7227 9.87544 11.433 9.67244 11.1268 9.49684L10.3925 9.07572C9.57243 8.60338 8.8241 8.54769 8.22822 9.05689L7.08091 9.9352C7.03493 9.96804 6.97206 9.96804 6.92295 9.93521C6.38325 9.57452 5.52698 8.81401 5.06091 8.36056L4.8968 8.19645L4.67395 7.96036C4.30898 7.56178 3.62272 6.78415 3.32214 6.3344C3.28931 6.28529 3.28932 6.22243 3.32216 6.17645L4.20047 5.02914L4.26641 4.94694C4.70374 4.36507 4.6325 3.64765 4.18163 2.86487L3.76096 2.13132Z" fill="#AEAEB2"/>
</svg>
