<svg width="38" height="38" viewBox="0 0 38 38" fill="none" xmlns="http://www.w3.org/2000/svg">
<path fill-rule="evenodd" clip-rule="evenodd" d="M17.5163 23.2704L7.34538 30.8374L14.9123 20.6665L17.5163 23.2704ZM32.6678 10.185C33.6441 11.1613 33.6441 12.7442 32.6678 13.7206C32.5472 13.8412 32.4146 13.9491 32.272 14.0427L26.2455 17.9987C26.9078 21.6218 26.51 24.5002 25.0521 26.634L24.7993 26.9828C24.775 27.0145 24.7485 27.0446 24.7203 27.0728C24.406 27.3871 23.9218 27.4258 23.5739 27.1861L23.4504 27.0832L10.9212 14.554C10.5735 14.2063 10.5782 13.6378 10.9317 13.2843L11.0218 13.2052C13.1868 11.542 16.1814 11.0599 20.0058 11.759L23.9618 5.73256C24.7195 4.57832 26.2694 4.25685 27.4237 5.01454C27.5662 5.10815 27.6989 5.2161 27.8195 5.33671L32.6678 10.185Z" fill="white"/>
</svg>
