<svg width="18" height="18" viewBox="0 0 18 18" fill="none" xmlns="http://www.w3.org/2000/svg">
<path d="M8.64823 0.00684662L8.75 0C9.1297 0 9.44349 0.282154 9.49315 0.648229L9.5 0.75V8H16.75C17.1297 8 17.4435 8.28215 17.4932 8.64823L17.5 8.75C17.5 9.1297 17.2178 9.44349 16.8518 9.49315L16.75 9.5H9.5V16.75C9.5 17.1297 9.21785 17.4435 8.85177 17.4932L8.75 17.5C8.3703 17.5 8.05651 17.2178 8.00685 16.8518L8 16.75V9.5H0.75C0.370304 9.5 0.056509 9.21785 0.00684662 8.85177L0 8.75C0 8.3703 0.282154 8.05651 0.648229 8.00685L0.75 8H8V0.75C8 0.370304 8.28215 0.056509 8.64823 0.00684662L8.75 0L8.64823 0.00684662Z" fill="#007AFF"/>
</svg>
