<svg width="29" height="30" viewBox="0 0 29 30" fill="none" xmlns="http://www.w3.org/2000/svg">
<rect y="0.5" width="29" height="29" rx="6" fill="#8E8E93"/>
<path fill-rule="evenodd" clip-rule="evenodd" d="M14.5 6C17.2614 6 19.5 8.23858 19.5 11V13C20.6046 13 21.5 13.8954 21.5 15V22C21.5 23.1046 20.6046 24 19.5 24H9.5C8.39543 24 7.5 23.1046 7.5 22V15C7.5 13.8954 8.39543 13 9.5 13V11C9.5 8.23858 11.7386 6 14.5 6ZM14.5 15.5C13.6716 15.5 13 16.1716 13 17C13 17.603 13.3558 18.1228 13.8689 18.3612L14.0003 18.4148L14.0006 20.9589C14.0006 21.2044 14.1775 21.4085 14.4107 21.4508L14.5007 21.4588C14.7769 21.4588 15.0007 21.2349 15.0007 20.9587L15.0007 18.4144C15.5829 18.2083 16 17.6528 16 17C16 16.1716 15.3284 15.5 14.5 15.5ZM14.5 7.5C12.6274 7.5 11.0983 9.20694 11.0046 11.3534L11 11.5625V13H18V11.5625C18 9.31884 16.433 7.5 14.5 7.5Z" fill="white"/>
</svg>
