<svg width="29" height="30" viewBox="0 0 29 30" fill="none" xmlns="http://www.w3.org/2000/svg">
<rect y="0.5" width="29" height="29" rx="6" fill="#34C759"/>
<path fill-rule="evenodd" clip-rule="evenodd" d="M7.61384 6.68951C8.38309 6.04014 9.59516 6.19054 10.3211 7.02542C10.3813 7.09467 10.437 7.16753 10.4879 7.2435L12.046 9.56867C12.6236 10.4254 12.6086 11.4996 12.009 12.2097L11.4499 12.8415C10.9768 13.376 11.0237 14.2279 11.5588 14.8189C12.0521 15.4862 12.589 16.1101 13.1693 16.6904L13.4631 16.9769C13.9588 17.4485 14.4847 17.8898 15.0408 18.3009C15.6023 18.8092 16.3991 18.877 16.9357 18.4769L17.0182 18.4098L17.65 17.8507C18.3278 17.2784 19.3374 17.2386 20.1729 17.7386L20.291 17.8137L22.6162 19.3718C22.6922 19.4227 22.765 19.4784 22.8343 19.5386C23.6692 20.2645 23.8195 21.4766 23.1702 22.2459C21.4003 24.0157 17.3599 24.5428 11.5101 18.811L11.2782 18.5815C5.30322 12.6065 5.82067 8.48268 7.61384 6.68951Z" fill="white"/>
</svg>
