<svg width="21" height="24" viewBox="0 0 21 24" fill="none" xmlns="http://www.w3.org/2000/svg">
<path d="M18.835 14.4827L13.3021 20.0155C10.6506 22.667 6.35166 22.667 3.70014 20.0155C1.04863 17.364 1.04863 13.0651 3.70014 10.4135L11.1478 2.96589C12.9168 1.19687 15.785 1.19687 17.554 2.96589C19.323 4.73491 19.323 7.60306 17.554 9.37208L9.87171 17.0544C9.04056 17.8855 7.693 17.8855 6.86185 17.0544C6.0307 16.2232 6.0307 14.8757 6.86185 14.0445L12.6293 8.27703C12.9222 7.98413 12.9222 7.50926 12.6293 7.21637C12.3364 6.92347 11.8616 6.92347 11.5687 7.21637L5.80119 12.9839C4.38425 14.4008 4.38425 16.6981 5.80119 18.115C7.21812 19.532 9.51543 19.532 10.9324 18.115L18.6147 10.4327C20.9695 8.07793 20.9695 4.26004 18.6147 1.90523C16.2598 -0.449581 12.442 -0.449581 10.0871 1.90523L2.63948 9.35289C-0.597818 12.5902 -0.597818 17.8389 2.63948 21.0762C5.87678 24.3135 11.1255 24.3135 14.3628 21.0762L19.8956 15.5433C20.1885 15.2504 20.1885 14.7756 19.8956 14.4827C19.6027 14.1898 19.1279 14.1898 18.835 14.4827Z" fill="#858E99"/>
</svg>
