<svg width="29" height="30" viewBox="0 0 29 30" fill="none" xmlns="http://www.w3.org/2000/svg">
<rect y="0.5" width="29" height="29" rx="6" fill="#FF9500"/>
<path fill-rule="evenodd" clip-rule="evenodd" d="M12.5149 5.69236L12.2544 5.75641C8.28158 6.79473 5.34998 10.4082 5.34998 14.7064C5.34998 19.815 9.49134 23.9564 14.6 23.9564C19.0323 23.9564 22.7366 20.8389 23.6403 16.6783L22.1001 16.666C21.2321 19.9974 18.2032 22.4564 14.6 22.4564C10.3198 22.4564 6.84998 18.9866 6.84998 14.7064C6.84998 11.1162 9.29118 8.09624 12.6044 7.21652C12.5949 7.1217 12.5844 6.98351 12.5729 6.80197L12.5149 5.69236ZM23.5921 14.887C23.3016 13.942 15.015 5.7064 14.3137 5.7064C13.6892 5.7064 13.6111 6.33087 13.6014 6.7381L13.6028 7.2059C13.7067 12.8218 16.6652 15.7064 22.3264 15.7064C22.4026 15.7064 22.4888 15.7042 22.5852 15.6998L22.9046 15.6801C23.2968 15.6506 23.6 15.3238 23.6 14.9305L23.5921 14.887Z" fill="white"/>
</svg>
