<svg width="28" height="26" viewBox="0 0 28 26" fill="none" xmlns="http://www.w3.org/2000/svg">
<path fill-rule="evenodd" clip-rule="evenodd" d="M14 0C15.9284 0 17.7624 0.352231 19.4218 0.986869C19.1505 1.60329 19 2.28408 19 3C19 5.76142 21.2386 8 24 8C24.9137 8 25.7702 7.7549 26.5073 7.32686C27.1472 8.69365 27.5 10.191 27.5 11.7601C27.5 18.255 21.4558 23.5201 14 23.5201C12.9582 23.5201 11.1299 23.2734 10.1558 23.0789C8.42505 24.9759 6.30328 25.7695 3.79053 25.4598L3.4872 25.4169C3.43289 25.4084 3.39575 25.3575 3.40425 25.3031C3.40879 25.2741 3.42596 25.2485 3.45114 25.2333C4.95193 24.3272 5.64618 23.0745 5.5339 21.475C5.3568 18.9524 0.5 19.336 0.5 11.7601C0.5 4.1841 6.54416 0 14 0ZM24 0C25.6569 0 27 1.34315 27 3C27 4.65685 25.6569 6 24 6C22.3431 6 21 4.65685 21 3C21 1.34315 22.3431 0 24 0Z" fill="white"/>
</svg>
