<svg width="18" height="24" viewBox="0 0 18 24" fill="none" xmlns="http://www.w3.org/2000/svg">
<path fill-rule="evenodd" clip-rule="evenodd" d="M9.191 0.905751C8.94725 0.662454 8.55006 0.664798 8.30609 0.907881C8.24475 0.952994 8.19053 1.00722 8.14542 1.06855L4.69888 4.51669L4.62627 4.60081C4.40841 4.89442 4.43262 5.31108 4.69888 5.57735L4.783 5.64997C5.07661 5.86782 5.49328 5.84362 5.75955 5.57735L7.99922 3.33658L8 14.4878L8.00685 14.5896C8.05651 14.9557 8.3703 15.2378 8.75 15.2378L8.85177 15.231C9.21785 15.1813 9.5 14.8675 9.5 14.4878L9.49922 3.33658L11.7405 5.57735L11.8246 5.64997C12.1182 5.86782 12.5348 5.84362 12.8011 5.57735C13.094 5.28446 13.094 4.80958 12.8011 4.51669L9.35671 1.07146C9.31047 1.00796 9.2545 0.951991 9.191 0.905751ZM5.75 7.25012H2.75L2.58248 7.25514C1.1417 7.34171 0 8.53758 0 10.0001V20.0001L0.00501879 20.1676C0.0915957 21.6084 1.28747 22.7501 2.75 22.7501H14.75L14.9175 22.7451C16.3583 22.6585 17.5 21.4626 17.5 20.0001V10.0001L17.495 9.83259C17.4084 8.39182 16.2125 7.25012 14.75 7.25012H11.8295L11.7277 7.25696C11.3616 7.30663 11.0795 7.62042 11.0795 8.00012C11.0795 8.41433 11.4153 8.75012 11.8295 8.75012H14.75L14.8778 8.75657C15.5081 8.82058 16 9.35291 16 10.0001V20.0001L15.9935 20.1279C15.9295 20.7582 15.3972 21.2501 14.75 21.2501H2.75L2.62219 21.2437C1.99187 21.1797 1.5 20.6473 1.5 20.0001V10.0001L1.50645 9.87231C1.57047 9.24199 2.10279 8.75012 2.75 8.75012H5.75L5.85177 8.74327C6.21785 8.69361 6.5 8.37981 6.5 8.00012C6.5 7.5859 6.16421 7.25012 5.75 7.25012Z" fill="#007AFF"/>
</svg>
